<mxfile host="app.diagrams.net" agent="Mozilla/5.0 (Macintosh; Intel Mac OS X 10_15_7) AppleWebKit/605.1.15 (KHTML, like Gecko) Version/18.4 Safari/605.1.15" version="27.0.6">
  <diagram id="jrXY4hO8n29qiqvIHeQG" name="Page-1">
    <mxGraphModel dx="2551" dy="2129" grid="1" gridSize="10" guides="1" tooltips="1" connect="1" arrows="1" fold="1" page="0" pageScale="1" pageWidth="827" pageHeight="1169" math="0" shadow="0">
      <root>
        <mxCell id="0" />
        <mxCell id="1" parent="0" />
        <mxCell id="5G6M97Ru5O6IGqaMy1Rf-31" value="Availability Zone 1" style="strokeColor=#147EBA;dashed=1;verticalAlign=top;fontStyle=0;fontColor=#147EBA;" parent="1" vertex="1">
          <mxGeometry x="-970" y="-690" width="340" height="630" as="geometry" />
        </mxCell>
        <mxCell id="5G6M97Ru5O6IGqaMy1Rf-42" value="" style="fillColor=none;strokeColor=#5A6C86;dashed=1;verticalAlign=top;fontStyle=0;fontColor=#5A6C86;" parent="1" vertex="1">
          <mxGeometry x="-950" y="-270" width="700" height="170" as="geometry" />
        </mxCell>
        <mxCell id="5G6M97Ru5O6IGqaMy1Rf-26" value="Private Subnet 1" style="points=[[0,0],[0.25,0],[0.5,0],[0.75,0],[1,0],[1,0.25],[1,0.5],[1,0.75],[1,1],[0.75,1],[0.5,1],[0.25,1],[0,1],[0,0.75],[0,0.5],[0,0.25]];outlineConnect=0;gradientColor=none;html=1;whiteSpace=wrap;fontSize=12;fontStyle=0;shape=mxgraph.aws4.group;grIcon=mxgraph.aws4.group_security_group;grStroke=0;strokeColor=#147EBA;fillColor=#E6F2F8;verticalAlign=top;align=left;spacingLeft=30;fontColor=#147EBA;dashed=0;" parent="1" vertex="1">
          <mxGeometry x="-960" y="-520" width="320" height="450" as="geometry" />
        </mxCell>
        <mxCell id="5G6M97Ru5O6IGqaMy1Rf-22" value="AWS Cloud" style="points=[[0,0],[0.25,0],[0.5,0],[0.75,0],[1,0],[1,0.25],[1,0.5],[1,0.75],[1,1],[0.75,1],[0.5,1],[0.25,1],[0,1],[0,0.75],[0,0.5],[0,0.25]];outlineConnect=0;gradientColor=none;html=1;whiteSpace=wrap;fontSize=12;fontStyle=0;shape=mxgraph.aws4.group;grIcon=mxgraph.aws4.group_aws_cloud_alt;strokeColor=#232F3E;verticalAlign=top;align=left;spacingLeft=30;fontColor=#232F3E;dashed=0;fillColor=none;" parent="1" vertex="1">
          <mxGeometry x="-1020" y="-800" width="1020" height="910" as="geometry" />
        </mxCell>
        <mxCell id="5G6M97Ru5O6IGqaMy1Rf-23" value="VPC" style="points=[[0,0],[0.25,0],[0.5,0],[0.75,0],[1,0],[1,0.25],[1,0.5],[1,0.75],[1,1],[0.75,1],[0.5,1],[0.25,1],[0,1],[0,0.75],[0,0.5],[0,0.25]];outlineConnect=0;gradientColor=none;html=1;whiteSpace=wrap;fontSize=12;fontStyle=0;shape=mxgraph.aws4.group;grIcon=mxgraph.aws4.group_vpc;strokeColor=#248814;fillColor=none;verticalAlign=top;align=left;spacingLeft=30;dashed=0;fontColor=#248814;" parent="1" vertex="1">
          <mxGeometry x="-1000" y="-720" width="800" height="680" as="geometry" />
        </mxCell>
        <mxCell id="5G6M97Ru5O6IGqaMy1Rf-32" value="Availability Zone 2" style="strokeColor=#147EBA;dashed=1;verticalAlign=top;fontStyle=0;fontColor=#147EBA;" parent="1" vertex="1">
          <mxGeometry x="-570" y="-690" width="340" height="630" as="geometry" />
        </mxCell>
        <mxCell id="5G6M97Ru5O6IGqaMy1Rf-24" value="Public Subnet 1a" style="points=[[0,0],[0.25,0],[0.5,0],[0.75,0],[1,0],[1,0.25],[1,0.5],[1,0.75],[1,1],[0.75,1],[0.5,1],[0.25,1],[0,1],[0,0.75],[0,0.5],[0,0.25]];outlineConnect=0;gradientColor=none;html=1;whiteSpace=wrap;fontSize=12;fontStyle=0;shape=mxgraph.aws4.group;grIcon=mxgraph.aws4.group_security_group;grStroke=0;strokeColor=#248814;fillColor=#E9F3E6;verticalAlign=top;align=left;spacingLeft=30;fontColor=#248814;dashed=0;" parent="1" vertex="1">
          <mxGeometry x="-960" y="-662" width="320" height="120" as="geometry" />
        </mxCell>
        <mxCell id="5G6M97Ru5O6IGqaMy1Rf-25" value="Public Subnet 1b" style="points=[[0,0],[0.25,0],[0.5,0],[0.75,0],[1,0],[1,0.25],[1,0.5],[1,0.75],[1,1],[0.75,1],[0.5,1],[0.25,1],[0,1],[0,0.75],[0,0.5],[0,0.25]];outlineConnect=0;gradientColor=none;html=1;whiteSpace=wrap;fontSize=12;fontStyle=0;shape=mxgraph.aws4.group;grIcon=mxgraph.aws4.group_security_group;grStroke=0;strokeColor=#248814;fillColor=#E9F3E6;verticalAlign=top;align=left;spacingLeft=30;fontColor=#248814;dashed=0;" parent="1" vertex="1">
          <mxGeometry x="-560" y="-662" width="320" height="120" as="geometry" />
        </mxCell>
        <mxCell id="5G6M97Ru5O6IGqaMy1Rf-27" value="Private Subnet 2" style="points=[[0,0],[0.25,0],[0.5,0],[0.75,0],[1,0],[1,0.25],[1,0.5],[1,0.75],[1,1],[0.75,1],[0.5,1],[0.25,1],[0,1],[0,0.75],[0,0.5],[0,0.25]];outlineConnect=0;gradientColor=none;html=1;whiteSpace=wrap;fontSize=12;fontStyle=0;shape=mxgraph.aws4.group;grIcon=mxgraph.aws4.group_security_group;grStroke=0;strokeColor=#147EBA;fillColor=#E6F2F8;verticalAlign=top;align=left;spacingLeft=30;fontColor=#147EBA;dashed=0;" parent="1" vertex="1">
          <mxGeometry x="-560" y="-520" width="320" height="450" as="geometry" />
        </mxCell>
        <mxCell id="5G6M97Ru5O6IGqaMy1Rf-36" value="Internet Gateway" style="outlineConnect=0;fontColor=#232F3E;gradientColor=none;fillColor=#232F3E;strokeColor=none;dashed=0;verticalLabelPosition=bottom;verticalAlign=top;align=center;html=1;fontSize=12;fontStyle=0;aspect=fixed;pointerEvents=1;shape=mxgraph.aws4.internet_alt2;" parent="1" vertex="1">
          <mxGeometry x="-624" y="-790" width="48" height="48" as="geometry" />
        </mxCell>
        <mxCell id="5G6M97Ru5O6IGqaMy1Rf-37" value="Users" style="outlineConnect=0;fontColor=#232F3E;gradientColor=none;fillColor=#232F3E;strokeColor=none;dashed=0;verticalLabelPosition=bottom;verticalAlign=top;align=center;html=1;fontSize=12;fontStyle=0;aspect=fixed;pointerEvents=1;shape=mxgraph.aws4.users;" parent="1" vertex="1">
          <mxGeometry x="-620" y="-870" width="40" height="40" as="geometry" />
        </mxCell>
        <mxCell id="5G6M97Ru5O6IGqaMy1Rf-38" value="Elastic IP" style="outlineConnect=0;gradientColor=none;strokeColor=#248814;dashed=0;verticalLabelPosition=bottom;verticalAlign=middle;align=center;html=1;fontSize=12;fontStyle=0;aspect=fixed;pointerEvents=1;shape=mxgraph.aws4.elastic_ip_address;rotation=90;spacingLeft=30;fillColor=#248814;fontColor=#248814;horizontal=0;labelPosition=center;spacingTop=46;" parent="1" vertex="1">
          <mxGeometry x="-960.0000000000001" y="-600.93" width="38.49" height="16.29" as="geometry" />
        </mxCell>
        <mxCell id="5G6M97Ru5O6IGqaMy1Rf-48" value="Elastic IP" style="outlineConnect=0;gradientColor=none;strokeColor=#248814;dashed=0;verticalLabelPosition=bottom;verticalAlign=middle;align=center;html=1;fontSize=12;fontStyle=0;aspect=fixed;pointerEvents=1;shape=mxgraph.aws4.elastic_ip_address;rotation=90;spacingLeft=30;fillColor=#248814;fontColor=#248814;horizontal=0;labelPosition=center;spacingTop=46;" parent="1" vertex="1">
          <mxGeometry x="-560.0000000000001" y="-610.29" width="38.49" height="16.29" as="geometry" />
        </mxCell>
        <mxCell id="z02mb0LdHBEPI5BZw7L--1" value="" style="sketch=0;points=[[0,0,0],[0.25,0,0],[0.5,0,0],[0.75,0,0],[1,0,0],[0,1,0],[0.25,1,0],[0.5,1,0],[0.75,1,0],[1,1,0],[0,0.25,0],[0,0.5,0],[0,0.75,0],[1,0.25,0],[1,0.5,0],[1,0.75,0]];outlineConnect=0;fontColor=#232F3E;fillColor=#7AA116;strokeColor=#ffffff;dashed=0;verticalLabelPosition=bottom;verticalAlign=top;align=center;html=1;fontSize=12;fontStyle=0;aspect=fixed;shape=mxgraph.aws4.resourceIcon;resIcon=mxgraph.aws4.s3;" parent="1" vertex="1">
          <mxGeometry x="-140" y="-390" width="78" height="78" as="geometry" />
        </mxCell>
        <mxCell id="z02mb0LdHBEPI5BZw7L--2" value="" style="sketch=0;points=[[0,0,0],[0.25,0,0],[0.5,0,0],[0.75,0,0],[1,0,0],[0,1,0],[0.25,1,0],[0.5,1,0],[0.75,1,0],[1,1,0],[0,0.25,0],[0,0.5,0],[0,0.75,0],[1,0.25,0],[1,0.5,0],[1,0.75,0]];outlineConnect=0;fontColor=#232F3E;fillColor=#7AA116;strokeColor=#ffffff;dashed=0;verticalLabelPosition=bottom;verticalAlign=top;align=center;html=1;fontSize=12;fontStyle=0;aspect=fixed;shape=mxgraph.aws4.resourceIcon;resIcon=mxgraph.aws4.s3;" parent="1" vertex="1">
          <mxGeometry x="-140" y="-278" width="78" height="78" as="geometry" />
        </mxCell>
        <mxCell id="z02mb0LdHBEPI5BZw7L--3" value="" style="sketch=0;points=[[0,0,0],[0.25,0,0],[0.5,0,0],[0.75,0,0],[1,0,0],[0,1,0],[0.25,1,0],[0.5,1,0],[0.75,1,0],[1,1,0],[0,0.25,0],[0,0.5,0],[0,0.75,0],[1,0.25,0],[1,0.5,0],[1,0.75,0]];outlineConnect=0;fontColor=#232F3E;fillColor=#7AA116;strokeColor=#ffffff;dashed=0;verticalLabelPosition=bottom;verticalAlign=top;align=center;html=1;fontSize=12;fontStyle=0;aspect=fixed;shape=mxgraph.aws4.resourceIcon;resIcon=mxgraph.aws4.s3;" parent="1" vertex="1">
          <mxGeometry x="-140" y="-165" width="78" height="78" as="geometry" />
        </mxCell>
        <mxCell id="z02mb0LdHBEPI5BZw7L--4" value="&lt;b&gt;S3: Bronze&lt;/b&gt;" style="text;html=1;align=center;verticalAlign=middle;whiteSpace=wrap;rounded=0;" parent="1" vertex="1">
          <mxGeometry x="-215.5" y="-312" width="225" height="40" as="geometry" />
        </mxCell>
        <mxCell id="z02mb0LdHBEPI5BZw7L--5" value="&lt;b&gt;S3: Silver&amp;nbsp;&lt;/b&gt;" style="text;html=1;align=center;verticalAlign=middle;whiteSpace=wrap;rounded=0;" parent="1" vertex="1">
          <mxGeometry x="-213.5" y="-205" width="225" height="40" as="geometry" />
        </mxCell>
        <mxCell id="z02mb0LdHBEPI5BZw7L--6" value="&lt;b&gt;S3: Gold&amp;nbsp;&lt;/b&gt;" style="text;html=1;align=center;verticalAlign=middle;whiteSpace=wrap;rounded=0;" parent="1" vertex="1">
          <mxGeometry x="-213.5" y="-80" width="225" height="40" as="geometry" />
        </mxCell>
        <mxCell id="z02mb0LdHBEPI5BZw7L--7" value="" style="outlineConnect=0;dashed=0;verticalLabelPosition=bottom;verticalAlign=top;align=center;html=1;shape=mxgraph.aws3.lambda_function;fillColor=#F58534;gradientColor=none;" parent="1" vertex="1">
          <mxGeometry x="-434.75" y="-794" width="54.5" height="52" as="geometry" />
        </mxCell>
        <mxCell id="z02mb0LdHBEPI5BZw7L--8" value="" style="outlineConnect=0;dashed=0;verticalLabelPosition=bottom;verticalAlign=top;align=center;html=1;shape=mxgraph.aws3.lambda_function;fillColor=#F58534;gradientColor=none;" parent="1" vertex="1">
          <mxGeometry x="-270" y="-790" width="54.5" height="52" as="geometry" />
        </mxCell>
        <mxCell id="z02mb0LdHBEPI5BZw7L--9" value="&lt;b&gt;Lambda NYC Ingestion&lt;/b&gt;" style="text;html=1;align=center;verticalAlign=middle;whiteSpace=wrap;rounded=0;" parent="1" vertex="1">
          <mxGeometry x="-313.15" y="-750" width="160" height="40" as="geometry" />
        </mxCell>
        <mxCell id="z02mb0LdHBEPI5BZw7L--10" value="&lt;b&gt;Lambda NOAA Ingestion&lt;/b&gt;" style="text;html=1;align=center;verticalAlign=middle;whiteSpace=wrap;rounded=0;" parent="1" vertex="1">
          <mxGeometry x="-512.5" y="-750" width="225" height="40" as="geometry" />
        </mxCell>
        <mxCell id="z02mb0LdHBEPI5BZw7L--105" style="edgeStyle=orthogonalEdgeStyle;rounded=0;orthogonalLoop=1;jettySize=auto;html=1;exitX=1;exitY=0.5;exitDx=0;exitDy=0;exitPerimeter=0;" parent="1" source="z02mb0LdHBEPI5BZw7L--11" target="z02mb0LdHBEPI5BZw7L--20" edge="1">
          <mxGeometry relative="1" as="geometry" />
        </mxCell>
        <mxCell id="z02mb0LdHBEPI5BZw7L--11" value="" style="sketch=0;points=[[0,0,0],[0.25,0,0],[0.5,0,0],[0.75,0,0],[1,0,0],[0,1,0],[0.25,1,0],[0.5,1,0],[0.75,1,0],[1,1,0],[0,0.25,0],[0,0.5,0],[0,0.75,0],[1,0.25,0],[1,0.5,0],[1,0.75,0]];outlineConnect=0;fontColor=#232F3E;fillColor=#8C4FFF;strokeColor=#ffffff;dashed=0;verticalLabelPosition=bottom;verticalAlign=top;align=center;html=1;fontSize=12;fontStyle=0;aspect=fixed;shape=mxgraph.aws4.resourceIcon;resIcon=mxgraph.aws4.redshift;" parent="1" vertex="1">
          <mxGeometry x="-660" y="-292" width="132" height="132" as="geometry" />
        </mxCell>
        <mxCell id="z02mb0LdHBEPI5BZw7L--12" value="&lt;b&gt;Redshift Serverless&amp;nbsp;&lt;/b&gt;" style="text;html=1;align=center;verticalAlign=middle;whiteSpace=wrap;rounded=0;" parent="1" vertex="1">
          <mxGeometry x="-705" y="-160" width="225" height="40" as="geometry" />
        </mxCell>
        <mxCell id="z02mb0LdHBEPI5BZw7L--25" value="" style="group" parent="1" vertex="1" connectable="0">
          <mxGeometry x="-930" y="-450" width="225" height="110" as="geometry" />
        </mxCell>
        <mxCell id="z02mb0LdHBEPI5BZw7L--26" value="" style="sketch=0;points=[[0,0,0],[0.25,0,0],[0.5,0,0],[0.75,0,0],[1,0,0],[0,1,0],[0.25,1,0],[0.5,1,0],[0.75,1,0],[1,1,0],[0,0.25,0],[0,0.5,0],[0,0.75,0],[1,0.25,0],[1,0.5,0],[1,0.75,0]];outlineConnect=0;fontColor=#232F3E;fillColor=#C925D1;strokeColor=#ffffff;dashed=0;verticalLabelPosition=bottom;verticalAlign=top;align=center;html=1;fontSize=12;fontStyle=0;aspect=fixed;shape=mxgraph.aws4.resourceIcon;resIcon=mxgraph.aws4.rds;" parent="z02mb0LdHBEPI5BZw7L--25" vertex="1">
          <mxGeometry x="73.5" width="78" height="78" as="geometry" />
        </mxCell>
        <mxCell id="z02mb0LdHBEPI5BZw7L--27" value="&lt;b&gt;RDS PostgreSQL Airflow&amp;nbsp;&lt;/b&gt;" style="text;html=1;align=center;verticalAlign=middle;whiteSpace=wrap;rounded=0;" parent="z02mb0LdHBEPI5BZw7L--25" vertex="1">
          <mxGeometry y="70" width="225" height="40" as="geometry" />
        </mxCell>
        <mxCell id="z02mb0LdHBEPI5BZw7L--28" value="&lt;b&gt;(10.0.0.0/16)&lt;/b&gt;" style="text;html=1;align=center;verticalAlign=middle;whiteSpace=wrap;rounded=0;" parent="1" vertex="1">
          <mxGeometry x="-970" y="-730" width="150" height="30" as="geometry" />
        </mxCell>
        <mxCell id="z02mb0LdHBEPI5BZw7L--29" value="&lt;b&gt;(10.0.1.0/24)&lt;/b&gt;" style="text;html=1;align=center;verticalAlign=middle;whiteSpace=wrap;rounded=0;" parent="1" vertex="1">
          <mxGeometry x="-750" y="-670" width="150" height="30" as="geometry" />
        </mxCell>
        <mxCell id="z02mb0LdHBEPI5BZw7L--30" value="&lt;b&gt;(10.0.2.0/24)&lt;/b&gt;" style="text;html=1;align=center;verticalAlign=middle;whiteSpace=wrap;rounded=0;" parent="1" vertex="1">
          <mxGeometry x="-750" y="-520" width="150" height="30" as="geometry" />
        </mxCell>
        <mxCell id="z02mb0LdHBEPI5BZw7L--31" value="&lt;b&gt;S3 Endpoint&lt;/b&gt;" style="text;html=1;align=center;verticalAlign=middle;whiteSpace=wrap;rounded=0;" parent="1" vertex="1">
          <mxGeometry x="-313.15" y="-220" width="225" height="40" as="geometry" />
        </mxCell>
        <mxCell id="z02mb0LdHBEPI5BZw7L--32" value="" style="group" parent="1" vertex="1" connectable="0">
          <mxGeometry x="-919.25" y="-10" width="488.5" height="110" as="geometry" />
        </mxCell>
        <mxCell id="z02mb0LdHBEPI5BZw7L--33" value="" style="sketch=0;points=[[0,0,0],[0.25,0,0],[0.5,0,0],[0.75,0,0],[1,0,0],[0,1,0],[0.25,1,0],[0.5,1,0],[0.75,1,0],[1,1,0],[0,0.25,0],[0,0.5,0],[0,0.75,0],[1,0.25,0],[1,0.5,0],[1,0.75,0]];outlineConnect=0;fontColor=#232F3E;fillColor=#7AA116;strokeColor=#ffffff;dashed=0;verticalLabelPosition=bottom;verticalAlign=top;align=center;html=1;fontSize=12;fontStyle=0;aspect=fixed;shape=mxgraph.aws4.resourceIcon;resIcon=mxgraph.aws4.s3;" parent="z02mb0LdHBEPI5BZw7L--32" vertex="1">
          <mxGeometry x="213.5" width="78" height="78" as="geometry" />
        </mxCell>
        <mxCell id="z02mb0LdHBEPI5BZw7L--34" value="" style="sketch=0;points=[[0,0,0],[0.25,0,0],[0.5,0,0],[0.75,0,0],[1,0,0],[0,1,0],[0.25,1,0],[0.5,1,0],[0.75,1,0],[1,1,0],[0,0.25,0],[0,0.5,0],[0,0.75,0],[1,0.25,0],[1,0.5,0],[1,0.75,0]];outlineConnect=0;fontColor=#232F3E;fillColor=#7AA116;strokeColor=#ffffff;dashed=0;verticalLabelPosition=bottom;verticalAlign=top;align=center;html=1;fontSize=12;fontStyle=0;aspect=fixed;shape=mxgraph.aws4.resourceIcon;resIcon=mxgraph.aws4.s3;" parent="z02mb0LdHBEPI5BZw7L--32" vertex="1">
          <mxGeometry x="73.5" width="78" height="78" as="geometry" />
        </mxCell>
        <mxCell id="z02mb0LdHBEPI5BZw7L--35" value="&lt;b&gt;S3: Terraform State&lt;/b&gt;" style="text;html=1;align=center;verticalAlign=middle;whiteSpace=wrap;rounded=0;" parent="z02mb0LdHBEPI5BZw7L--32" vertex="1">
          <mxGeometry y="70" width="225" height="40" as="geometry" />
        </mxCell>
        <mxCell id="z02mb0LdHBEPI5BZw7L--36" value="" style="sketch=0;points=[[0,0,0],[0.25,0,0],[0.5,0,0],[0.75,0,0],[1,0,0],[0,1,0],[0.25,1,0],[0.5,1,0],[0.75,1,0],[1,1,0],[0,0.25,0],[0,0.5,0],[0,0.75,0],[1,0.25,0],[1,0.5,0],[1,0.75,0]];outlineConnect=0;fontColor=#232F3E;fillColor=#7AA116;strokeColor=#ffffff;dashed=0;verticalLabelPosition=bottom;verticalAlign=top;align=center;html=1;fontSize=12;fontStyle=0;aspect=fixed;shape=mxgraph.aws4.resourceIcon;resIcon=mxgraph.aws4.s3;" parent="z02mb0LdHBEPI5BZw7L--32" vertex="1">
          <mxGeometry x="343.5" width="78" height="78" as="geometry" />
        </mxCell>
        <mxCell id="z02mb0LdHBEPI5BZw7L--37" value="&lt;b&gt;S3: Central Logs&lt;/b&gt;" style="text;html=1;align=center;verticalAlign=middle;whiteSpace=wrap;rounded=0;" parent="z02mb0LdHBEPI5BZw7L--32" vertex="1">
          <mxGeometry x="140" y="70" width="225" height="40" as="geometry" />
        </mxCell>
        <mxCell id="z02mb0LdHBEPI5BZw7L--38" value="&lt;b&gt;S3: Airflow Assets&lt;/b&gt;" style="text;html=1;align=center;verticalAlign=middle;whiteSpace=wrap;rounded=0;" parent="z02mb0LdHBEPI5BZw7L--32" vertex="1">
          <mxGeometry x="263.5" y="70" width="225" height="40" as="geometry" />
        </mxCell>
        <mxCell id="z02mb0LdHBEPI5BZw7L--39" value="" style="points=[[0.13,0.02,0],[0.5,0,0],[0.87,0.02,0],[0.885,0.4,0],[0.985,0.985,0],[0.5,1,0],[0.015,0.985,0],[0.115,0.4,0]];verticalLabelPosition=bottom;sketch=0;html=1;verticalAlign=top;aspect=fixed;align=center;pointerEvents=1;shape=mxgraph.cisco19.laptop;fillColor=#005073;strokeColor=none;" parent="1" vertex="1">
          <mxGeometry x="25" y="-651.22" width="110.72" height="77.5" as="geometry" />
        </mxCell>
        <mxCell id="z02mb0LdHBEPI5BZw7L--40" value="&lt;div&gt;&lt;b&gt;Developer&lt;/b&gt;&lt;/div&gt;" style="text;html=1;align=center;verticalAlign=middle;whiteSpace=wrap;rounded=0;" parent="1" vertex="1">
          <mxGeometry x="-30" y="-573.72" width="225" height="40" as="geometry" />
        </mxCell>
        <mxCell id="z02mb0LdHBEPI5BZw7L--41" value="" style="sketch=0;points=[[0,0,0],[0.25,0,0],[0.5,0,0],[0.75,0,0],[1,0,0],[0,1,0],[0.25,1,0],[0.5,1,0],[0.75,1,0],[1,1,0],[0,0.25,0],[0,0.5,0],[0,0.75,0],[1,0.25,0],[1,0.5,0],[1,0.75,0]];outlineConnect=0;fontColor=#232F3E;fillColor=#7AA116;strokeColor=#ffffff;dashed=0;verticalLabelPosition=bottom;verticalAlign=top;align=center;html=1;fontSize=12;fontStyle=0;aspect=fixed;shape=mxgraph.aws4.resourceIcon;resIcon=mxgraph.aws4.s3;" parent="1" vertex="1">
          <mxGeometry x="-130" y="-778" width="78" height="78" as="geometry" />
        </mxCell>
        <mxCell id="z02mb0LdHBEPI5BZw7L--42" value="&lt;b&gt;S3: Public NYC Data&lt;/b&gt;" style="text;html=1;align=center;verticalAlign=middle;whiteSpace=wrap;rounded=0;" parent="1" vertex="1">
          <mxGeometry x="-200" y="-710" width="225" height="40" as="geometry" />
        </mxCell>
        <mxCell id="z02mb0LdHBEPI5BZw7L--43" value="" style="aspect=fixed;sketch=0;html=1;dashed=0;whitespace=wrap;verticalLabelPosition=bottom;verticalAlign=top;fillColor=#2875E2;strokeColor=#ffffff;points=[[0.005,0.63,0],[0.1,0.2,0],[0.9,0.2,0],[0.5,0,0],[0.995,0.63,0],[0.72,0.99,0],[0.5,1,0],[0.28,0.99,0]];shape=mxgraph.kubernetes.icon2;kubernetesLabel=1;prIcon=api" parent="1" vertex="1">
          <mxGeometry x="-470" y="-980" width="81.25" height="78" as="geometry" />
        </mxCell>
        <mxCell id="z02mb0LdHBEPI5BZw7L--48" value="" style="group" parent="1" vertex="1" connectable="0">
          <mxGeometry x="-1040" y="-930" width="98" height="48" as="geometry" />
        </mxCell>
        <mxCell id="z02mb0LdHBEPI5BZw7L--44" value="Continuous Integration" style="shape=rect;fillColor=#EE5396;aspect=fixed;resizable=0;labelPosition=center;verticalLabelPosition=bottom;align=center;verticalAlign=top;strokeColor=none;fontSize=14;" parent="z02mb0LdHBEPI5BZw7L--48" vertex="1">
          <mxGeometry x="50" width="48" height="48" as="geometry" />
        </mxCell>
        <mxCell id="z02mb0LdHBEPI5BZw7L--45" value="" style="fillColor=#ffffff;strokeColor=none;dashed=0;outlineConnect=0;html=1;labelPosition=center;verticalLabelPosition=bottom;verticalAlign=top;part=1;movable=0;resizable=0;rotatable=0;shape=mxgraph.ibm_cloud.continuous-integration" parent="z02mb0LdHBEPI5BZw7L--44" vertex="1">
          <mxGeometry width="24" height="24" relative="1" as="geometry">
            <mxPoint x="12" y="12" as="offset" />
          </mxGeometry>
        </mxCell>
        <mxCell id="z02mb0LdHBEPI5BZw7L--47" value="" style="shape=image;html=1;verticalAlign=top;verticalLabelPosition=bottom;labelBackgroundColor=#ffffff;imageAspect=0;aspect=fixed;image=https://cdn4.iconfinder.com/data/icons/ionicons/512/icon-social-github-128.png" parent="z02mb0LdHBEPI5BZw7L--48" vertex="1">
          <mxGeometry width="43" height="43" as="geometry" />
        </mxCell>
        <mxCell id="z02mb0LdHBEPI5BZw7L--103" value="" style="edgeStyle=orthogonalEdgeStyle;rounded=0;orthogonalLoop=1;jettySize=auto;html=1;" parent="1" source="z02mb0LdHBEPI5BZw7L--53" target="z02mb0LdHBEPI5BZw7L--26" edge="1">
          <mxGeometry relative="1" as="geometry" />
        </mxCell>
        <mxCell id="z02mb0LdHBEPI5BZw7L--53" value="&lt;b&gt;Airflow&lt;/b&gt;" style="text;html=1;align=center;verticalAlign=middle;whiteSpace=wrap;rounded=0;" parent="1" vertex="1">
          <mxGeometry x="-847" y="-547.15" width="50" as="geometry" />
        </mxCell>
        <mxCell id="z02mb0LdHBEPI5BZw7L--55" value="&lt;b&gt;Metabase&lt;/b&gt;" style="text;html=1;align=center;verticalAlign=middle;whiteSpace=wrap;rounded=0;" parent="1" vertex="1">
          <mxGeometry x="-740" y="-547.15" width="50" as="geometry" />
        </mxCell>
        <mxCell id="z02mb0LdHBEPI5BZw7L--63" value="1a" style="ellipse;whiteSpace=wrap;html=1;aspect=fixed;rotation=0;gradientColor=#C35500;strokeColor=none;gradientDirection=east;fillColor=#FFB300;rounded=0;pointerEvents=0;fontFamily=Helvetica;fontSize=16;fontColor=#FFFFFF;spacingTop=4;spacingBottom=4;spacingLeft=4;spacingRight=4;points=[];fontStyle=1" parent="1" vertex="1">
          <mxGeometry x="135.72" y="-607.78" width="30" height="30" as="geometry" />
        </mxCell>
        <mxCell id="z02mb0LdHBEPI5BZw7L--64" value="&lt;font style=&quot;font-size: 13px;&quot;&gt;1b&lt;/font&gt;" style="ellipse;whiteSpace=wrap;html=1;aspect=fixed;rotation=0;gradientColor=#C35500;strokeColor=none;gradientDirection=east;fillColor=#FFB300;rounded=0;pointerEvents=0;fontFamily=Helvetica;fontSize=16;fontColor=#FFFFFF;spacingTop=4;spacingBottom=4;spacingLeft=4;spacingRight=4;points=[];fontStyle=1" parent="1" vertex="1">
          <mxGeometry x="-774" y="-660" width="20" height="20" as="geometry" />
        </mxCell>
        <mxCell id="z02mb0LdHBEPI5BZw7L--65" value="2a" style="ellipse;whiteSpace=wrap;html=1;aspect=fixed;rotation=0;gradientColor=#C35500;strokeColor=none;gradientDirection=east;fillColor=#FFB300;rounded=0;pointerEvents=0;fontFamily=Helvetica;fontSize=16;fontColor=#FFFFFF;spacingTop=4;spacingBottom=4;spacingLeft=4;spacingRight=4;points=[];fontStyle=1" parent="1" vertex="1">
          <mxGeometry x="-892.5" y="-882" width="30" height="30" as="geometry" />
        </mxCell>
        <mxCell id="z02mb0LdHBEPI5BZw7L--66" value="&lt;font style=&quot;font-size: 13px;&quot;&gt;2b&lt;/font&gt;" style="ellipse;whiteSpace=wrap;html=1;aspect=fixed;rotation=0;gradientColor=#C35500;strokeColor=none;gradientDirection=east;fillColor=#FFB300;rounded=0;pointerEvents=0;fontFamily=Helvetica;fontSize=16;fontColor=#FFFFFF;spacingTop=4;spacingBottom=4;spacingLeft=4;spacingRight=4;points=[];fontStyle=1" parent="1" vertex="1">
          <mxGeometry x="-882.5" y="-794" width="24" height="24" as="geometry" />
        </mxCell>
        <mxCell id="z02mb0LdHBEPI5BZw7L--67" value="&lt;font style=&quot;font-size: 13px;&quot;&gt;2c&lt;/font&gt;" style="ellipse;whiteSpace=wrap;html=1;aspect=fixed;rotation=0;gradientColor=#C35500;strokeColor=none;gradientDirection=east;fillColor=#FFB300;rounded=0;pointerEvents=0;fontFamily=Helvetica;fontSize=16;fontColor=#FFFFFF;spacingTop=4;spacingBottom=4;spacingLeft=4;spacingRight=4;points=[];fontStyle=1" parent="1" vertex="1">
          <mxGeometry x="-890" y="-10" width="30" height="30" as="geometry" />
        </mxCell>
        <mxCell id="z02mb0LdHBEPI5BZw7L--68" value="&lt;font style=&quot;font-size: 13px;&quot;&gt;3a&lt;/font&gt;" style="ellipse;whiteSpace=wrap;html=1;aspect=fixed;rotation=0;gradientColor=#0057D2;strokeColor=none;gradientDirection=east;fillColor=#2395FF;rounded=0;pointerEvents=0;fontFamily=Helvetica;fontSize=16;fontColor=#FFFFFF;spacingTop=4;spacingBottom=4;spacingLeft=4;spacingRight=4;points=[];fontStyle=1" parent="1" vertex="1">
          <mxGeometry x="-874.36" y="-542.58" width="24.36" height="24.36" as="geometry" />
        </mxCell>
        <mxCell id="z02mb0LdHBEPI5BZw7L--69" value="&lt;font style=&quot;font-size: 13px;&quot;&gt;3b&lt;/font&gt;" style="ellipse;whiteSpace=wrap;html=1;aspect=fixed;rotation=0;gradientColor=#0057D2;strokeColor=none;gradientDirection=east;fillColor=#2395FF;rounded=0;pointerEvents=0;fontFamily=Helvetica;fontSize=16;fontColor=#FFFFFF;spacingTop=4;spacingBottom=4;spacingLeft=4;spacingRight=4;points=[];fontStyle=1" parent="1" vertex="1">
          <mxGeometry x="-470" y="-780.39" width="28.78" height="28.78" as="geometry" />
        </mxCell>
        <mxCell id="z02mb0LdHBEPI5BZw7L--70" value="&lt;font style=&quot;font-size: 13px;&quot;&gt;3c&lt;/font&gt;" style="ellipse;whiteSpace=wrap;html=1;aspect=fixed;rotation=0;gradientColor=#0057D2;strokeColor=none;gradientDirection=east;fillColor=#2395FF;rounded=0;pointerEvents=0;fontFamily=Helvetica;fontSize=16;fontColor=#FFFFFF;spacingTop=4;spacingBottom=4;spacingLeft=4;spacingRight=4;points=[];fontStyle=1" parent="1" vertex="1">
          <mxGeometry x="-490" y="-910.78" width="28.78" height="28.78" as="geometry" />
        </mxCell>
        <mxCell id="z02mb0LdHBEPI5BZw7L--71" value="&lt;font style=&quot;font-size: 13px;&quot;&gt;3d&lt;/font&gt;" style="ellipse;whiteSpace=wrap;html=1;aspect=fixed;rotation=0;gradientColor=#0057D2;strokeColor=none;gradientDirection=east;fillColor=#2395FF;rounded=0;pointerEvents=0;fontFamily=Helvetica;fontSize=16;fontColor=#FFFFFF;spacingTop=4;spacingBottom=4;spacingLeft=4;spacingRight=4;points=[];fontStyle=1" parent="1" vertex="1">
          <mxGeometry x="-153.14999999999998" y="-440" width="28.78" height="28.78" as="geometry" />
        </mxCell>
        <mxCell id="z02mb0LdHBEPI5BZw7L--72" value="&lt;font style=&quot;font-size: 14px;&quot;&gt;4a&lt;/font&gt;" style="ellipse;whiteSpace=wrap;html=1;aspect=fixed;rotation=0;gradientColor=#0057D2;strokeColor=none;gradientDirection=east;fillColor=#2395FF;rounded=0;pointerEvents=0;fontFamily=Helvetica;fontSize=16;fontColor=#FFFFFF;spacingTop=4;spacingBottom=4;spacingLeft=4;spacingRight=4;points=[];fontStyle=1" parent="1" vertex="1">
          <mxGeometry x="-850" y="-541.43" width="23.21" height="23.21" as="geometry" />
        </mxCell>
        <mxCell id="z02mb0LdHBEPI5BZw7L--73" value="&lt;font style=&quot;font-size: 14px;&quot;&gt;4c&lt;/font&gt;" style="ellipse;whiteSpace=wrap;html=1;aspect=fixed;rotation=0;gradientColor=#0057D2;strokeColor=none;gradientDirection=east;fillColor=#2395FF;rounded=0;pointerEvents=0;fontFamily=Helvetica;fontSize=16;fontColor=#FFFFFF;spacingTop=4;spacingBottom=4;spacingLeft=4;spacingRight=4;points=[];fontStyle=1" parent="1" vertex="1">
          <mxGeometry x="-105.38999999999999" y="-680" width="28.78" height="28.78" as="geometry" />
        </mxCell>
        <mxCell id="z02mb0LdHBEPI5BZw7L--74" value="&lt;font style=&quot;font-size: 14px;&quot;&gt;4b&lt;/font&gt;" style="ellipse;whiteSpace=wrap;html=1;aspect=fixed;rotation=0;gradientColor=#0057D2;strokeColor=none;gradientDirection=east;fillColor=#2395FF;rounded=0;pointerEvents=0;fontFamily=Helvetica;fontSize=16;fontColor=#FFFFFF;spacingTop=4;spacingBottom=4;spacingLeft=4;spacingRight=4;points=[];fontStyle=1" parent="1" vertex="1">
          <mxGeometry x="-313.15" y="-780.39" width="28.78" height="28.78" as="geometry" />
        </mxCell>
        <mxCell id="z02mb0LdHBEPI5BZw7L--75" value="&lt;font style=&quot;font-size: 14px;&quot;&gt;4d&lt;/font&gt;" style="ellipse;whiteSpace=wrap;html=1;aspect=fixed;rotation=0;gradientColor=#0057D2;strokeColor=none;gradientDirection=east;fillColor=#2395FF;rounded=0;pointerEvents=0;fontFamily=Helvetica;fontSize=16;fontColor=#FFFFFF;spacingTop=4;spacingBottom=4;spacingLeft=4;spacingRight=4;points=[];fontStyle=1" parent="1" vertex="1">
          <mxGeometry x="-115.38999999999999" y="-440" width="28.78" height="28.78" as="geometry" />
        </mxCell>
        <mxCell id="z02mb0LdHBEPI5BZw7L--76" value="&lt;font size=&quot;2&quot;&gt;5a&lt;/font&gt;" style="ellipse;whiteSpace=wrap;html=1;aspect=fixed;rotation=0;gradientColor=#256F3A;strokeColor=none;gradientDirection=east;fillColor=#5DC122;rounded=0;pointerEvents=0;fontFamily=Helvetica;fontSize=16;fontColor=#FFFFFF;spacingTop=4;spacingBottom=4;spacingLeft=4;spacingRight=4;points=[];fontStyle=1" parent="1" vertex="1">
          <mxGeometry x="-816.22" y="-541.23" width="22.43" height="22.43" as="geometry" />
        </mxCell>
        <mxCell id="z02mb0LdHBEPI5BZw7L--77" value="&lt;font size=&quot;2&quot;&gt;5b&lt;/font&gt;" style="ellipse;whiteSpace=wrap;html=1;aspect=fixed;rotation=0;gradientColor=#256F3A;strokeColor=none;gradientDirection=east;fillColor=#5DC122;rounded=0;pointerEvents=0;fontFamily=Helvetica;fontSize=16;fontColor=#FFFFFF;spacingTop=4;spacingBottom=4;spacingLeft=4;spacingRight=4;points=[];fontStyle=1" parent="1" vertex="1">
          <mxGeometry x="-667.2199999999998" y="-340" width="24.43" height="24.43" as="geometry" />
        </mxCell>
        <mxCell id="z02mb0LdHBEPI5BZw7L--78" value="&lt;font size=&quot;2&quot;&gt;5c&lt;/font&gt;" style="ellipse;whiteSpace=wrap;html=1;aspect=fixed;rotation=0;gradientColor=#256F3A;strokeColor=none;gradientDirection=east;fillColor=#5DC122;rounded=0;pointerEvents=0;fontFamily=Helvetica;fontSize=16;fontColor=#FFFFFF;spacingTop=4;spacingBottom=4;spacingLeft=4;spacingRight=4;points=[];fontStyle=1" parent="1" vertex="1">
          <mxGeometry x="-52.00000000000004" y="-364.43" width="24.43" height="24.43" as="geometry" />
        </mxCell>
        <mxCell id="z02mb0LdHBEPI5BZw7L--79" value="&lt;font size=&quot;2&quot;&gt;5d&lt;/font&gt;" style="ellipse;whiteSpace=wrap;html=1;aspect=fixed;rotation=0;gradientColor=#256F3A;strokeColor=none;gradientDirection=east;fillColor=#5DC122;rounded=0;pointerEvents=0;fontFamily=Helvetica;fontSize=16;fontColor=#FFFFFF;spacingTop=4;spacingBottom=4;spacingLeft=4;spacingRight=4;points=[];fontStyle=1" parent="1" vertex="1">
          <mxGeometry x="-52" y="-244.43" width="24.43" height="24.43" as="geometry" />
        </mxCell>
        <mxCell id="z02mb0LdHBEPI5BZw7L--80" value="&lt;font size=&quot;2&quot;&gt;5e&lt;/font&gt;" style="ellipse;whiteSpace=wrap;html=1;aspect=fixed;rotation=0;gradientColor=#256F3A;strokeColor=none;gradientDirection=east;fillColor=#5DC122;rounded=0;pointerEvents=0;fontFamily=Helvetica;fontSize=16;fontColor=#FFFFFF;spacingTop=4;spacingBottom=4;spacingLeft=4;spacingRight=4;points=[];fontStyle=1" parent="1" vertex="1">
          <mxGeometry x="-52" y="-138.22" width="24.43" height="24.43" as="geometry" />
        </mxCell>
        <mxCell id="z02mb0LdHBEPI5BZw7L--82" value="&lt;font size=&quot;2&quot;&gt;8&lt;/font&gt;" style="ellipse;whiteSpace=wrap;html=1;aspect=fixed;rotation=0;gradientColor=#470CED;strokeColor=none;gradientDirection=east;fillColor=#9B76FF;rounded=0;pointerEvents=0;fontFamily=Helvetica;fontSize=16;fontColor=#FFFFFF;spacingTop=4;spacingBottom=4;spacingLeft=4;spacingRight=4;points=[];fontStyle=1" parent="1" vertex="1">
          <mxGeometry x="-213.5" y="-290" width="20" height="20" as="geometry" />
        </mxCell>
        <mxCell id="z02mb0LdHBEPI5BZw7L--83" value="7a" style="ellipse;whiteSpace=wrap;html=1;aspect=fixed;rotation=0;gradientColor=#C35500;strokeColor=none;gradientDirection=east;fillColor=#FFB300;rounded=0;pointerEvents=0;fontFamily=Helvetica;fontSize=16;fontColor=#FFFFFF;spacingTop=4;spacingBottom=4;spacingLeft=4;spacingRight=4;points=[];fontStyle=1" parent="1" vertex="1">
          <mxGeometry x="-660" y="-852" width="30" height="30" as="geometry" />
        </mxCell>
        <mxCell id="z02mb0LdHBEPI5BZw7L--84" value="7b" style="ellipse;whiteSpace=wrap;html=1;aspect=fixed;rotation=0;gradientColor=#C35500;strokeColor=none;gradientDirection=east;fillColor=#FFB300;rounded=0;pointerEvents=0;fontFamily=Helvetica;fontSize=16;fontColor=#FFFFFF;spacingTop=4;spacingBottom=4;spacingLeft=4;spacingRight=4;points=[];fontStyle=1" parent="1" vertex="1">
          <mxGeometry x="-670" y="-577.78" width="30" height="30" as="geometry" />
        </mxCell>
        <mxCell id="z02mb0LdHBEPI5BZw7L--85" value="7c" style="ellipse;whiteSpace=wrap;html=1;aspect=fixed;rotation=0;gradientColor=#C35500;strokeColor=none;gradientDirection=east;fillColor=#FFB300;rounded=0;pointerEvents=0;fontFamily=Helvetica;fontSize=16;fontColor=#FFFFFF;spacingTop=4;spacingBottom=4;spacingLeft=4;spacingRight=4;points=[];fontStyle=1" parent="1" vertex="1">
          <mxGeometry x="-630" y="-340" width="30" height="30" as="geometry" />
        </mxCell>
        <mxCell id="z02mb0LdHBEPI5BZw7L--100" value="&lt;h1 style=&quot;margin-top: 0px;&quot;&gt;Core Data Flow&lt;/h1&gt;&lt;p data-sourcepos=&quot;7:1-7:18&quot;&gt;&lt;strong&gt;&lt;font face=&quot;Verdana&quot; style=&quot;font-size: 14px;&quot;&gt;Data Flow Key:&lt;/font&gt;&lt;/strong&gt;&lt;/p&gt;&lt;ol data-sourcepos=&quot;8:1-16:0&quot;&gt;&lt;li data-sourcepos=&quot;8:1-8:77&quot;&gt;&lt;font face=&quot;Verdana&quot; style=&quot;font-size: 14px;&quot;&gt;&lt;strong style=&quot;background-color: rgb(255, 179, 102);&quot;&gt;Developer Access &amp;amp; Management:&lt;/strong&gt;&amp;nbsp;Secure access and AWS interaction.&lt;/font&gt;&lt;/li&gt;&lt;li data-sourcepos=&quot;9:1-9:71&quot;&gt;&lt;font face=&quot;Verdana&quot; style=&quot;font-size: 14px;&quot;&gt;&lt;strong style=&quot;background-color: rgb(255, 179, 102);&quot;&gt;CI/CD Pipeline:&lt;/strong&gt;&amp;nbsp;Automated infrastructure &amp;amp; code deployment.&lt;/font&gt;&lt;/li&gt;&lt;li data-sourcepos=&quot;10:1-10:69&quot;&gt;&lt;font face=&quot;Verdana&quot; style=&quot;font-size: 14px;&quot;&gt;&lt;strong style=&quot;background-color: rgb(153, 204, 255);&quot;&gt;Weather Data Ingestion:&lt;/strong&gt;&amp;nbsp;NOAA API data processed to S3 Bronze.&lt;/font&gt;&lt;/li&gt;&lt;li data-sourcepos=&quot;11:1-11:71&quot;&gt;&lt;font face=&quot;Verdana&quot; style=&quot;font-size: 14px;&quot;&gt;&lt;strong style=&quot;background-color: rgb(153, 204, 255);&quot;&gt;Taxi Data Ingestion:&lt;/strong&gt;&amp;nbsp;NYC Public S3 data processed to S3 Bronze.&lt;/font&gt;&lt;/li&gt;&lt;li data-sourcepos=&quot;12:1-12:73&quot;&gt;&lt;font face=&quot;Verdana&quot; style=&quot;font-size: 14px;&quot;&gt;&lt;strong style=&quot;background-color: rgb(153, 255, 153);&quot;&gt;ELT Processing:&lt;/strong&gt;&amp;nbsp;Data transformation (S3 Bronze -&amp;gt; Redshift Gold).&lt;/font&gt;&lt;/li&gt;&lt;li data-sourcepos=&quot;13:1-13:84&quot;&gt;&lt;font face=&quot;Verdana&quot; style=&quot;font-size: 14px;&quot;&gt;&lt;span&gt;&lt;strong style=&quot;background-color: rgb(255, 102, 102);&quot;&gt;Airflow EC2 Core Operations:&lt;/strong&gt;&amp;nbsp;&lt;/span&gt;Metadata, logging, secrets, package management.&lt;/font&gt;&lt;/li&gt;&lt;li data-sourcepos=&quot;14:1-14:80&quot;&gt;&lt;font face=&quot;Verdana&quot; style=&quot;font-size: 14px;&quot;&gt;&lt;span style=&quot;background-color: rgb(255, 179, 102);&quot;&gt;&lt;strong&gt;BI &amp;amp; Metabase Access:&lt;/strong&gt;&amp;nbsp;&lt;/span&gt;User dashboard access &amp;amp; Redshift querying.&lt;/font&gt;&lt;/li&gt;&lt;li data-sourcepos=&quot;15:1-16:0&quot;&gt;&lt;font face=&quot;Verdana&quot; style=&quot;font-size: 14px;&quot;&gt;&lt;strong style=&quot;background-color: rgb(204, 153, 255);&quot;&gt;S3 Gateway Endpoint:&lt;/strong&gt;&amp;nbsp;Optimized private S3 access within VPC.&lt;/font&gt;&lt;/li&gt;&lt;/ol&gt;&lt;p&gt;.&lt;/p&gt;" style="text;html=1;whiteSpace=wrap;overflow=hidden;rounded=0;" parent="1" vertex="1">
          <mxGeometry x="25" y="-511.51" width="275" height="491.51" as="geometry" />
        </mxCell>
        <mxCell id="z02mb0LdHBEPI5BZw7L--101" value="&lt;div&gt;&lt;font style=&quot;font-size: 13px;&quot;&gt;6a&lt;/font&gt;&lt;/div&gt;" style="ellipse;whiteSpace=wrap;html=1;aspect=fixed;rotation=0;gradientColor=#AA0808;strokeColor=none;gradientDirection=east;fillColor=#FF5C77;rounded=0;pointerEvents=0;fontFamily=Helvetica;fontSize=16;fontColor=#FFFFFF;spacingTop=4;spacingBottom=4;spacingLeft=4;spacingRight=4;points=[];fontStyle=1" parent="1" vertex="1">
          <mxGeometry x="-790" y="-541.23" width="20" height="20" as="geometry" />
        </mxCell>
        <mxCell id="z02mb0LdHBEPI5BZw7L--20" value="" style="sketch=0;outlineConnect=0;fontColor=#232F3E;gradientColor=none;fillColor=#8C4FFF;strokeColor=none;dashed=0;verticalLabelPosition=bottom;verticalAlign=top;align=center;html=1;fontSize=12;fontStyle=0;aspect=fixed;pointerEvents=1;shape=mxgraph.aws4.endpoints;" parent="1" vertex="1">
          <mxGeometry x="-230" y="-252" width="52" height="52" as="geometry" />
        </mxCell>
        <mxCell id="z02mb0LdHBEPI5BZw7L--104" value="&lt;div&gt;&lt;font style=&quot;font-size: 13px;&quot;&gt;6b&lt;/font&gt;&lt;/div&gt;" style="ellipse;whiteSpace=wrap;html=1;aspect=fixed;rotation=0;gradientColor=#AA0808;strokeColor=none;gradientDirection=east;fillColor=#FF5C77;rounded=0;pointerEvents=0;fontFamily=Helvetica;fontSize=16;fontColor=#FFFFFF;spacingTop=4;spacingBottom=4;spacingLeft=4;spacingRight=4;points=[];fontStyle=1" parent="1" vertex="1">
          <mxGeometry x="-770" y="-420" width="20" height="20" as="geometry" />
        </mxCell>
        <mxCell id="X3yDwK4uY-WB9FAvXGhA-1" value="" style="container=1;collapsible=0;expand=0;recursiveResize=0;html=1;whiteSpace=wrap;strokeColor=#FA4D56;fillColor=none;dashed=1;dashPattern=1 3;strokeWidth=2" vertex="1" parent="1">
          <mxGeometry x="-921.51" y="-470" width="221.51" height="130" as="geometry" />
        </mxCell>
        <mxCell id="X3yDwK4uY-WB9FAvXGhA-2" value="" style="shape=rect;fillColor=none;aspect=fixed;resizable=0;labelPosition=right;verticalLabelPosition=middle;align=left;verticalAlign=middle;strokeColor=none;part=1;spacingLeft=5;fontSize=14;" vertex="1" parent="X3yDwK4uY-WB9FAvXGhA-1">
          <mxGeometry width="48" height="48" relative="1" as="geometry" />
        </mxCell>
        <mxCell id="X3yDwK4uY-WB9FAvXGhA-3" value="" style="fillColor=#FA4D56;shape=mxgraph.ibm_cloud.group--security;strokeColor=none;dashed=0;outlineConnect=0;html=1;labelPosition=center;verticalLabelPosition=bottom;verticalAlign=top;part=1;movable=0;resizable=0;rotatable=0;" vertex="1" parent="X3yDwK4uY-WB9FAvXGhA-2">
          <mxGeometry width="24" height="24" relative="1" as="geometry">
            <mxPoint x="12" y="12" as="offset" />
          </mxGeometry>
        </mxCell>
        <mxCell id="X3yDwK4uY-WB9FAvXGhA-4" value="" style="container=1;collapsible=0;expand=0;recursiveResize=0;html=1;whiteSpace=wrap;strokeColor=#FA4D56;fillColor=none;dashed=1;dashPattern=1 3;strokeWidth=2" vertex="1" parent="1">
          <mxGeometry x="-702.5" y="-297.22" width="220" height="167.22" as="geometry" />
        </mxCell>
        <mxCell id="X3yDwK4uY-WB9FAvXGhA-5" value="" style="shape=rect;fillColor=none;aspect=fixed;resizable=0;labelPosition=right;verticalLabelPosition=middle;align=left;verticalAlign=middle;strokeColor=none;part=1;spacingLeft=5;fontSize=14;" vertex="1" parent="X3yDwK4uY-WB9FAvXGhA-4">
          <mxGeometry width="48" height="48" relative="1" as="geometry" />
        </mxCell>
        <mxCell id="X3yDwK4uY-WB9FAvXGhA-6" value="" style="fillColor=#FA4D56;shape=mxgraph.ibm_cloud.group--security;strokeColor=none;dashed=0;outlineConnect=0;html=1;labelPosition=center;verticalLabelPosition=bottom;verticalAlign=top;part=1;movable=0;resizable=0;rotatable=0;" vertex="1" parent="X3yDwK4uY-WB9FAvXGhA-5">
          <mxGeometry width="24" height="24" relative="1" as="geometry">
            <mxPoint x="12" y="12" as="offset" />
          </mxGeometry>
        </mxCell>
        <mxCell id="z02mb0LdHBEPI5BZw7L--16" value="" style="sketch=0;points=[[0,0,0],[0.25,0,0],[0.5,0,0],[0.75,0,0],[1,0,0],[0,1,0],[0.25,1,0],[0.5,1,0],[0.75,1,0],[1,1,0],[0,0.25,0],[0,0.5,0],[0,0.75,0],[1,0.25,0],[1,0.5,0],[1,0.75,0]];outlineConnect=0;fontColor=#232F3E;fillColor=#ED7100;strokeColor=#ffffff;dashed=0;verticalLabelPosition=bottom;verticalAlign=top;align=center;html=1;fontSize=12;fontStyle=0;aspect=fixed;shape=mxgraph.aws4.resourceIcon;resIcon=mxgraph.aws4.ec2;" parent="1" vertex="1">
          <mxGeometry x="-839.72" y="-610.29" width="44.43" height="44.43" as="geometry" />
        </mxCell>
        <mxCell id="z02mb0LdHBEPI5BZw7L--52" value="" style="sketch=0;points=[[0,0,0],[0.25,0,0],[0.5,0,0],[0.75,0,0],[1,0,0],[0,1,0],[0.25,1,0],[0.5,1,0],[0.75,1,0],[1,1,0],[0,0.25,0],[0,0.5,0],[0,0.75,0],[1,0.25,0],[1,0.5,0],[1,0.75,0]];outlineConnect=0;fontColor=#232F3E;fillColor=#ED7100;strokeColor=#ffffff;dashed=0;verticalLabelPosition=bottom;verticalAlign=top;align=center;html=1;fontSize=12;fontStyle=0;aspect=fixed;shape=mxgraph.aws4.resourceIcon;resIcon=mxgraph.aws4.ec2;" parent="1" vertex="1">
          <mxGeometry x="-737.22" y="-610.29" width="44.43" height="44.43" as="geometry" />
        </mxCell>
        <mxCell id="X3yDwK4uY-WB9FAvXGhA-13" value="" style="rounded=1;arcSize=10;dashed=1;strokeColor=#ff0000;fillColor=none;gradientColor=none;dashPattern=8 4;strokeWidth=2;" vertex="1" parent="1">
          <mxGeometry x="-851.14" y="-617.94" width="67.26" height="59.73" as="geometry" />
        </mxCell>
        <mxCell id="X3yDwK4uY-WB9FAvXGhA-14" value="" style="rounded=1;arcSize=10;dashed=1;strokeColor=#ff0000;fillColor=none;gradientColor=none;dashPattern=8 4;strokeWidth=2;" vertex="1" parent="1">
          <mxGeometry x="-748.63" y="-617.94" width="67.26" height="59.73" as="geometry" />
        </mxCell>
      </root>
    </mxGraphModel>
  </diagram>
</mxfile>
